<svg width="18" height="18" viewBox="0 0 18 18" fill="none" xmlns="http://www.w3.org/2000/svg">
<path d="M8.99956 17.27C8.80071 17.2698 8.61008 17.1907 8.46956 17.05L1.46956 10.05C1.28199 9.85708 1.2116 9.57874 1.2849 9.31985C1.35819 9.06095 1.56404 8.86082 1.8249 8.79485C2.08575 8.72887 2.36199 8.80708 2.54956 9L8.99956 15.45L15.4496 9C15.6365 8.79935 15.9181 8.71675 16.1838 8.78461C16.4496 8.85248 16.6571 9.05998 16.7249 9.32571C16.7928 9.59144 16.7102 9.87303 16.5096 10.06L9.50956 17.06C9.3724 17.1922 9.19006 17.2673 8.99956 17.27Z" fill="black"/>
<path d="M8.99956 17.26C8.5876 17.2546 8.25495 16.922 8.24956 16.51V1.51C8.24956 1.24205 8.39251 0.994456 8.62456 0.860481C8.85661 0.726506 9.14251 0.726506 9.37456 0.860481C9.60661 0.994456 9.74956 1.24205 9.74956 1.51V16.51C9.74417 16.922 9.41152 17.2546 8.99956 17.26Z" fill="black"/>
<path d="M8.99956 18C8.60187 17.9996 8.22059 17.8414 7.93956 17.56L0.939559 10.56C0.354137 9.97182 0.356376 9.02042 0.944559 8.435C1.53274 7.84958 2.48414 7.85182 3.06956 8.44L8.99956 14.39L14.9196 8.46C15.505 7.87182 16.4564 7.86958 17.0446 8.455C17.6327 9.04042 17.635 9.99182 17.0496 10.58L10.0496 17.58C9.76776 17.8516 9.39095 18.0023 8.99956 18Z" fill="black"/>
<path d="M8.99956 18C8.17113 18 7.49956 17.3284 7.49956 16.5V1.5C7.49956 0.671573 8.17113 0 8.99956 0C9.82799 0 10.4996 0.671573 10.4996 1.5V16.5C10.4996 17.3284 9.82799 18 8.99956 18Z" fill="black"/>
</svg>
