<svg width="251" height="49" viewBox="0 0 251 49" fill="none" xmlns="http://www.w3.org/2000/svg">
<path d="M36.082 43.6358L28.4835 48.0245H0.382294V2.17173H28.4835L36.082 6.5605V43.6358ZM9.55285 10.0322V40.1641H26.9114V10.0322H9.55285ZM76.8845 43.9633L69.286 48.3521H55.3337L47.7352 43.9633V19.3338L55.3337 14.945H69.286L76.8845 19.3338V43.9633ZM56.7093 22.609V40.6881H67.9105V22.609H56.7093ZM96.8491 22.9365V40.3606H113.094V48.0245H95.4735L87.875 43.6358V19.6613L95.4735 15.2725H113.094V22.9365H96.8491ZM120.149 22.9365V15.2725H126.176V9.77019L135.15 4.59538V15.2725H142.355V22.9365H135.15V40.3606H142.355V48.0245H133.774L126.176 43.6358V22.9365H120.149ZM161.009 48.0245H152.035V0.206611H161.009V17.6307L165.659 14.945H174.24L181.839 19.3338V48.0245H172.865V22.609H161.009V48.0245ZM213.119 22.9365H201.852V48.0245H192.878V15.2725H200.28L201.852 17.9582L206.503 15.2725H213.119V22.9365ZM220.864 43.9633V15.2725H229.838V40.6881H241.039V15.2725H250.013V48.3521H242.611L241.039 45.6664L236.388 48.3521H228.462L220.864 43.9633Z" fill="#525252"/>
</svg>
