<svg width="24" height="24" viewBox="0 0 24 24" fill="none" xmlns="http://www.w3.org/2000/svg">
<circle cx="12" cy="12" r="12" fill="#262626"/>
<path d="M16.9636 11.9992C16.9635 12.1185 16.916 12.2329 16.8316 12.3172L12.6316 16.5172C12.5158 16.6298 12.3488 16.672 12.1935 16.628C12.0381 16.584 11.9181 16.4605 11.8785 16.304C11.8389 16.1475 11.8858 15.9818 12.0016 15.8692L15.8716 11.9992L12.0016 8.12921C11.8812 8.01703 11.8316 7.84808 11.8723 7.68864C11.913 7.5292 12.0375 7.4047 12.197 7.36398C12.3564 7.32326 12.5254 7.37282 12.6376 7.49321L16.8376 11.6932C16.9169 11.7755 16.962 11.8849 16.9636 11.9992Z" fill="white"/>
<path d="M16.9576 11.9992C16.9543 12.2464 16.7547 12.446 16.5076 12.4492L7.50756 12.4492C7.34679 12.4492 7.19824 12.3634 7.11785 12.2242C7.03747 12.085 7.03747 11.9134 7.11785 11.7742C7.19824 11.635 7.34679 11.5492 7.50756 11.5492L16.5076 11.5492C16.7547 11.5524 16.9543 11.752 16.9576 11.9992Z" fill="white"/>
<path d="M17.4016 11.9992C17.4014 12.2378 17.3064 12.4666 17.1376 12.6352L12.9376 16.8352C12.5847 17.1865 12.0138 17.1851 11.6626 16.8322C11.3113 16.4793 11.3127 15.9085 11.6656 15.5572L15.2356 11.9992L11.6776 8.44721C11.3247 8.09596 11.3233 7.52512 11.6746 7.17221C12.0258 6.8193 12.5967 6.81796 12.9496 7.16921L17.1496 11.3692C17.3125 11.5383 17.403 11.7644 17.4016 11.9992Z" fill="white"/>
<path d="M17.4016 11.9992C17.4016 12.4963 16.9986 12.8992 16.5016 12.8992L7.50156 12.8992C7.00451 12.8992 6.60156 12.4963 6.60156 11.9992C6.60156 11.5022 7.00451 11.0992 7.50156 11.0992L16.5016 11.0992C16.9986 11.0992 17.4016 11.5022 17.4016 11.9992Z" fill="white"/>
</svg>
