<svg width="736" height="368" viewBox="0 0 736 368" fill="none" xmlns="http://www.w3.org/2000/svg">
<rect width="736" height="368" fill="#171717"/>
<g clip-path="url(#clip0_3_48312)">
<path d="M313.082 204.636L305.484 209.025H277.382V163.172H305.484L313.082 167.56V204.636ZM286.553 171.032V201.164H303.911V171.032H286.553ZM353.885 204.963L346.286 209.352H332.334L324.735 204.963V180.334L332.334 175.945H346.286L353.885 180.334V204.963ZM333.709 183.609V201.688H344.91V183.609H333.709ZM373.849 183.937V201.361H390.094V209.025H372.473L364.875 204.636V180.661L372.473 176.273H390.094V183.937H373.849ZM397.149 183.937V176.273H403.176V170.77L412.15 165.595V176.273H419.355V183.937H412.15V201.361H419.355V209.025H410.774L403.176 204.636V183.937H397.149ZM438.009 209.025H429.035V161.207H438.009V178.631L442.659 175.945H451.24L458.839 180.334V209.025H449.865V183.609H438.009V209.025ZM490.119 183.937H478.852V209.025H469.878V176.273H477.28L478.852 178.958L483.503 176.273H490.119V183.937ZM497.864 204.963V176.273H506.838V201.688H518.039V176.273H527.013V209.352H519.611L518.039 206.666L513.388 209.352H505.462L497.864 204.963Z" fill="#525252"/>
<rect x="202.215" y="153.294" width="53.222" height="61.41" rx="4.094" fill="#262626"/>
<path d="M235.99 173.764L243.154 182.719L235.99 191.675" stroke="#FFC117" stroke-width="4.9128"/>
<path d="M221.661 173.764L214.496 182.719L221.661 191.675" stroke="#FFC117" stroke-width="4.9128"/>
</g>
<defs>
<clipPath id="clip0_3_48312">
<rect width="363.911" height="81.88" fill="white" transform="translate(185.84 143.059)"/>
</clipPath>
</defs>
</svg>
